<?xml version="1.0" encoding="utf-8"?>
<!-- Generator: Adobe Illustrator 18.1.0, SVG Export Plug-In . SVG Version: 6.00 Build 0)  -->
<svg version="1.1" id="Layer_1" xmlns="http://www.w3.org/2000/svg" xmlns:xlink="http://www.w3.org/1999/xlink" x="0px" y="0px"
	 viewBox="-203 384 205 25" enable-background="new -203 384 205 25" xml:space="preserve">
<title>Logo</title>
<desc>Created with Sketch.</desc>
<path id="DEVMYND" fill="#555555" d="M-150.5,402.3h3.5c2.6,0,5.5-1.5,5.5-5c0-3.8-2.9-5-5.5-5h-3.5V402.3z M-148.7,400.8v-6.9h1.5
	c1.8,0,3.9,0.6,3.9,3.5c0,2.7-2.1,3.4-3.9,3.4H-148.7z M-126.2,402.3h6.9v-1.6h-5.1v-2.8h4.6v-1.5h-4.6v-2.5h4.8v-1.6h-6.6V402.3z
	 M-101.3,402.3h1.5l4-10h-1.9l-2.8,7.7h-0.1l-2.8-7.7h-2L-101.3,402.3z M-81.3,402.3h1.7v-8h0l3,8h1.2l3-8h0v8h1.8v-10h-2.8
	l-2.6,7.1h0l-2.6-7.1h-2.8V402.3z M-52.3,402.3h1.8V398l3.8-5.7h-2.1l-2.5,4.2l-2.5-4.2h-2.2l3.8,5.7V402.3z M-32.4,402.3h1.8v-7.7
	h0l4.7,7.7h2.3v-10h-1.8v7.5h0l-4.6-7.5h-2.4V402.3z M-7.9,402.3h3.5c2.6,0,5.5-1.5,5.5-5c0-3.8-2.9-5-5.5-5h-3.5V402.3z
	 M-6.1,400.8v-6.9h1.5c1.8,0,3.9,0.6,3.9,3.5c0,2.7-2.1,3.4-3.9,3.4H-6.1z"/>
<path fill="#555555" d="M-165.9,384.5L-165.9,384.5l-0.7,0.6l-14,11.4l-13.6-11.1v0l-1.1-0.9l0,0l-0.7-0.5v0.9v1.4v3.4l-7-5.7v25h7
	h15.4h8.4h7v-22.7v-1.4V384L-165.9,384.5z M-201.2,407.2l0-19.5l5.2,4.2v15.2L-201.2,407.2z M-194.2,393.4l17,13.8h-3.4h-13.6V393.4
	z M-167,407.2h-7.4l-19.8-16.1v-3.4l12.5,10.1l1.1,0.9l1.1-0.9l12.5-10.1V407.2z"/>
</svg>
